name analog
datacolumns 19
datarows 42
range 0.738 0.7585000000000001
endheader
time	ground_force_vx	ground_force_vy	ground_force_vz	ground_force_px	ground_force_py	ground_force_pz	l_ground_force_vx	l_ground_force_vy	l_ground_force_vz	l_ground_force_px	l_ground_force_py	l_ground_force_pz	ground_torque_x	ground_torque_y	ground_torque_z	l_ground_torque_x	l_ground_torque_y	l_ground_torque_z
0.738	-0.0	-0.0	-0.0	25.167613983154297	163.21006774902344	-820.1243896484375	-1.4742941856384275	-141.12545776367188	-658.2340087890625	-0.0	-0.0	-0.0	-0.0	-0.0	-0.0	81666.09375	-2918.043212890625	-3606.946044921875
0.7385	-0.0	-0.0	-0.0	17.295639038085938	160.4015350341797	-794.9193725585938	-4.390806198120117	-138.24496459960938	-628.6900024414062	-0.0	-0.0	-0.0	-0.0	-0.0	-0.0	77368.453125	-1886.4449462890625	-3790.61181640625
0.739	-0.0	-0.0	-0.0	16.760465621948242	159.28713989257812	-779.9979858398438	-4.978944778442383	-132.3387451171875	-605.5149536132812	-0.0	-0.0	-0.0	-0.0	-0.0	-0.0	73872.734375	-1132.3583984375	-4075.190185546875
0.7395	-0.0	-0.0	-0.0	23.96389389038086	157.44906616210938	-779.4241943359375	-3.903274536132813	-126.05703735351562	-590.02294921875	-0.0	-0.0	-0.0	-0.0	-0.0	-0.0	71699.0078125	-1142.179931640625	-4261.90771484375
0.74	-0.0	-0.0	-0.0	33.20833969116211	155.62277221679688	-782.3807983398438	-2.872457981109619	-121.76204681396484	-581.7327270507812	-0.0	-0.0	-0.0	-0.0	-0.0	-0.0	70663.875	-1261.54345703125	-4397.0234375
0.7405	-0.0	-0.0	-0.0	41.35932922363281	153.6746368408203	-789.7972412109375	-0.6209754943847656	-118.32819366455078	-572.608642578125	-0.0	-0.0	-0.0	-0.0	-0.0	-0.0	70153.953125	-1808.5782470703125	-4546.7587890625
0.741	-0.0	-0.0	-0.0	47.14878082275391	151.51284790039062	-787.9444580078125	2.4730224609375	-116.08551788330078	-570.5994262695312	-0.0	-0.0	-0.0	-0.0	-0.0	-0.0	69648.890625	-2482.050048828125	-4376.86669921875
0.7415	-0.0	-0.0	-0.0	51.32853698730469	149.40675354003906	-783.8450317382812	7.306732654571533	-114.37442016601562	-568.4613647460938	-0.0	-0.0	-0.0	-0.0	-0.0	-0.0	69478.828125	-3137.70751953125	-3799.15087890625
0.742	-0.0	-0.0	-0.0	54.21550750732422	148.4589080810547	-775.326904296875	14.745015144348145	-111.90357971191406	-566.6306762695312	-0.0	-0.0	-0.0	-0.0	-0.0	-0.0	69191.078125	-4209.34814453125	-2832.41796875
0.7425	-0.0	-0.0	-0.0	57.08047103881836	147.7675018310547	-774.5659790039062	23.671924591064453	-108.328125	-566.6309814453125	-0.0	-0.0	-0.0	-0.0	-0.0	-0.0	69663.734375	-5083.4443359375	-1869.843505859375
0.743	-0.0	-0.0	-0.0	60.32374572753906	147.41490173339844	-783.2109985351562	31.3540153503418	-104.81663513183594	-575.0946655273438	-0.0	-0.0	-0.0	-0.0	-0.0	-0.0	70975.6875	-6552.85986328125	-940.4961547851562
0.7435	-0.0	-0.0	-0.0	63.466705322265625	146.46682739257812	-803.0053100585938	36.82157897949219	-103.63694763183594	-589.6180419921875	-0.0	-0.0	-0.0	-0.0	-0.0	-0.0	73069.71875	-8555.1865234375	-364.5210266113281
0.744	-0.0	-0.0	-0.0	65.67998504638672	145.7122039794922	-816.677001953125	40.34238815307617	-103.67919921875	-607.3401489257812	-0.0	-0.0	-0.0	-0.0	-0.0	-0.0	76496.703125	-10112.0732421875	-72.57664489746094
0.7445	-0.0	-0.0	-0.0	65.39131164550781	145.4763946533203	-824.1560668945312	41.38109970092773	-104.48455810546876	-621.572265625	-0.0	-0.0	-0.0	-0.0	-0.0	-0.0	78349.296875	-11501.525390625	-30.273386001586918
0.745	-0.0	-0.0	-0.0	63.72308349609375	147.51080322265625	-823.3272705078125	40.88045120239258	-105.97567749023438	-625.063232421875	-0.0	-0.0	-0.0	-0.0	-0.0	-0.0	79063.1953125	-11802.0	-294.4840393066406
0.7455	-0.0	-0.0	-0.0	60.82085037231445	148.748291015625	-818.0057373046875	37.5202522277832	-108.1572494506836	-623.4219360351562	-0.0	-0.0	-0.0	-0.0	-0.0	-0.0	78468.5546875	-12029.8125	-752.7680053710938
0.746	-0.0	-0.0	-0.0	57.78097915649414	149.50254821777344	-812.74853515625	32.7818489074707	-110.06930541992188	-617.1381225585938	-0.0	-0.0	-0.0	-0.0	-0.0	-0.0	76907.21875	-11092.3212890625	-1293.95361328125
0.7465	-0.0	-0.0	-0.0	57.30105972290039	149.4818878173828	-810.19482421875	28.0907039642334	-111.75740814208984	-607.6041259765625	-0.0	-0.0	-0.0	-0.0	-0.0	-0.0	75531.4140625	-10521.921875	-1950.220947265625
0.747	-0.0	-0.0	-0.0	58.31550598144531	149.46151733398438	-808.23681640625	25.054338455200195	-111.40399932861328	-605.8180541992188	-0.0	-0.0	-0.0	-0.0	-0.0	-0.0	74735.8515625	-10263.0205078125	-2716.7021484375
0.7475	-0.0	-0.0	-0.0	61.843109130859375	147.27374267578125	-814.74609375	25.361183166503903	-109.58709716796876	-607.1038818359375	-0.0	-0.0	-0.0	-0.0	-0.0	-0.0	75047.3515625	-10388.607421875	-2880.454345703125
0.748	-0.0	-0.0	-0.0	67.04725646972656	144.41021728515625	-817.2626342773438	28.072694778442383	-107.5558624267578	-618.3475341796875	-0.0	-0.0	-0.0	-0.0	-0.0	-0.0	76498.484375	-11327.7880859375	-2611.0869140625
0.7485	-0.0	-0.0	-0.0	71.38770294189453	140.67703247070312	-816.3175048828125	33.316444396972656	-105.99595642089844	-631.8508911132812	-0.0	-0.0	-0.0	-0.0	-0.0	-0.0	79304.0234375	-12508.3115234375	-1997.0238037109373
0.749	-0.0	-0.0	-0.0	73.07332611083984	137.34007263183594	-813.6873168945312	38.32305908203125	-105.3973388671875	-650.9744873046875	-0.0	-0.0	-0.0	-0.0	-0.0	-0.0	82012.9765625	-14223.474609375	-1212.43017578125
0.7495	-0.0	-0.0	-0.0	71.6163558959961	134.2205352783203	-809.95849609375	43.03457260131836	-105.7504425048828	-668.1593627929688	-0.0	-0.0	-0.0	-0.0	-0.0	-0.0	84897.8046875	-15057.3779296875	-543.4220581054688
0.75	-0.0	-0.0	-0.0	68.21663665771484	131.55551147460938	-809.72509765625	44.92684173583984	-106.3198013305664	-680.2244262695312	-0.0	-0.0	-0.0	-0.0	-0.0	-0.0	86529.5	-16462.3515625	-70.75949096679688
0.7505000000000001	-0.0	-0.0	-0.0	64.10346221923828	130.63601684570312	-806.1173095703125	44.17797088623047	-106.771240234375	-685.8916625976562	-0.0	-0.0	-0.0	-0.0	-0.0	-0.0	87703.25	-16696.10546875	-153.767578125
0.751	-0.0	-0.0	-0.0	58.8713264465332	129.84365844726562	-802.9395751953125	40.86665344238281	-106.38746643066406	-686.5908813476562	-0.0	-0.0	-0.0	-0.0	-0.0	-0.0	87953.8828125	-16309.99609375	-719.599609375
0.7515000000000001	-0.0	-0.0	-0.0	52.27735900878906	129.12112426757812	-793.7684326171875	35.14128494262695	-106.25099182128906	-683.9501953125	-0.0	-0.0	-0.0	-0.0	-0.0	-0.0	87614.46875	-15677.509765625	-1722.5096435546875
0.752	-0.0	-0.0	-0.0	45.271240234375	128.99411010742188	-780.8052978515625	28.723228454589844	-105.26046752929688	-680.6090087890625	-0.0	-0.0	-0.0	-0.0	-0.0	-0.0	87241.5390625	-15239.55859375	-2834.930419921875
0.7525000000000001	-0.0	-0.0	-0.0	38.692604064941406	128.3003387451172	-772.216552734375	23.885478973388672	-103.93572235107422	-678.83837890625	-0.0	-0.0	-0.0	-0.0	-0.0	-0.0	87072.765625	-14400.2734375	-3670.782958984375
0.753	-0.0	-0.0	-0.0	32.40667724609375	127.01081848144533	-762.1250610351562	19.880630493164062	-101.58869171142578	-675.6454467773438	-0.0	-0.0	-0.0	-0.0	-0.0	-0.0	86711.90625	-13930.54296875	-4358.3544921875
0.7535000000000001	-0.0	-0.0	-0.0	27.528549194335938	125.53790283203124	-752.8311767578125	17.051206588745117	-99.9708251953125	-670.29736328125	-0.0	-0.0	-0.0	-0.0	-0.0	-0.0	86274.5703125	-13754.4013671875	-5023.35595703125
0.754	-0.0	-0.0	-0.0	23.960376739501957	122.81777954101562	-744.2452392578125	14.894104957580566	-98.329833984375	-665.09716796875	-0.0	-0.0	-0.0	-0.0	-0.0	-0.0	85777.140625	-12690.1630859375	-5510.10986328125
0.7545000000000001	-0.0	-0.0	-0.0	21.622758865356445	119.0935516357422	-736.7941284179688	12.87229061126709	-96.88888549804688	-658.1870727539062	-0.0	-0.0	-0.0	-0.0	-0.0	-0.0	84458.9453125	-12231.65625	-5885.849609375
0.755	-0.0	-0.0	-0.0	19.57117080688477	115.74366760253906	-731.9964599609375	9.865266799926758	-95.88078308105467	-649.2412719726562	-0.0	-0.0	-0.0	-0.0	-0.0	-0.0	83695.625	-11052.4208984375	-6208.95654296875
0.7555000000000001	-0.0	-0.0	-0.0	16.82427215576172	111.52037811279295	-724.969970703125	6.794236660003662	-93.87686920166016	-638.2750854492188	-0.0	-0.0	-0.0	-0.0	-0.0	-0.0	82006.4140625	-10009.3056640625	-6682.06201171875
0.756	-0.0	-0.0	-0.0	13.45269012451172	108.46265411376952	-714.4522705078125	3.858056306838989	-91.6959228515625	-626.649169921875	-0.0	-0.0	-0.0	-0.0	-0.0	-0.0	80096.5546875	-9079.9169921875	-7258.57275390625
0.7565000000000001	-0.0	-0.0	-0.0	9.00041389465332	105.81494140625	-703.427490234375	1.1802430152893066	-89.55819702148438	-614.9572143554688	-0.0	-0.0	-0.0	-0.0	-0.0	-0.0	78793.921875	-7998.529296875	-7704.89501953125
0.757	-0.0	-0.0	-0.0	3.809271097183228	103.4536361694336	-688.206298828125	-0.416784793138504	-86.07810974121094	-602.7059936523438	-0.0	-0.0	-0.0	-0.0	-0.0	-0.0	77318.59375	-7298.4501953125	-7998.80322265625
0.7575000000000001	-0.0	-0.0	-0.0	-0.1961478590965271	101.11873626708984	-674.433349609375	-2.0226283073425293	-83.09306335449219	-590.9392700195312	-0.0	-0.0	-0.0	-0.0	-0.0	-0.0	75904.203125	-6570.138671875	-8141.603515625
0.758	-0.0	-0.0	-0.0	-3.826228618621826	98.52535247802734	-661.3662719726562	-2.892185926437378	-79.76326751708984	-581.374267578125	-0.0	-0.0	-0.0	-0.0	-0.0	-0.0	74709.96875	-5637.61669921875	-8349.0673828125
0.7585000000000001	-0.0	-0.0	-0.0	-6.849923610687256	96.55622863769533	-644.484130859375	-4.151931285858154	-76.88469696044922	-570.4450073242188	-0.0	-0.0	-0.0	-0.0	-0.0	-0.0	73288.921875	-5169.46826171875	-8310.4365234375
